<?xml version="1.0" encoding="utf-8"?>
<!-- Generator: Adobe Illustrator 16.0.0, SVG Export Plug-In . SVG Version: 6.00 Build 0)  -->
<!DOCTYPE svg PUBLIC "-//W3C//DTD SVG 1.1 Tiny//EN" "http://www.w3.org/Graphics/SVG/1.1/DTD/svg11-tiny.dtd">
<svg version="1.1" baseProfile="tiny" id="Layer_1" xmlns="http://www.w3.org/2000/svg" xmlns:xlink="http://www.w3.org/1999/xlink"
	 x="0px" y="0px" viewBox="0 0 407.123 262.281" xml:space="preserve">
<path fill="#3E3E42" d="M23.488,234.879V21.531C23.488,8.612,34.058,0,46.976,0h313.172c12.918,0,23.487,8.612,23.487,21.531
	v213.348"/>
<path fill="#D2D2D6" d="M0,240.751v3.914c0,8.612,7.046,17.616,15.659,17.616h375.806c8.612,0,15.658-9.004,15.658-17.616v-3.914
	c0-4.307-3.523-5.872-7.829-5.872H7.829C3.523,234.879,0,236.444,0,240.751z"/>
<path fill="#A6A6AD" d="M250.537,246.623h-93.951c-4.306,0-7.83-5.48-7.83-9.787v-1.957h109.61v1.957
	C258.366,241.143,254.844,246.623,250.537,246.623z"/>
<rect x="43.061" y="19.573" fill="#57575E" width="321" height="195.732"/>
<g>
	<g>
		<path fill="#FFFFFF" d="M247.562,197.188c0,2.762-2.104,5-4.473,5h-38.594c-2.369,0-3.934-2.238-3.934-5v-55
			c0-2.762,1.565-5,3.934-5h38.594c2.368,0,4.473,2.238,4.473,5V197.188z"/>
		<g>
			<path fill="#57575E" d="M224.627,171.226l5.717-4.518c0.262-0.207,0.647-0.021,0.647,0.314v6.341c0,0.454-0.367,0.82-0.82,0.82
				h-6.115h-6.103c-0.453,0-0.821-0.366-0.821-0.82v-6.341c0-0.334,0.387-0.521,0.648-0.313l5.706,4.517
				C223.82,171.49,224.293,171.49,224.627,171.226z"/>
			<path fill="#57575E" d="M224.062,165.191h5.77c0.376,0,0.539,0.479,0.238,0.706l-5.62,4.304c-0.232,0.179-0.556,0.178-0.788,0
				l-5.609-4.304c-0.298-0.229-0.137-0.706,0.238-0.706H224.062z"/>
		</g>
	</g>
	<g>
		<path fill="#FFFFFF" d="M194.562,197.32c0,2.688-2.239,4.867-5,4.867h-113c-2.761,0-5-2.179-5-4.867V179.8
			c0-2.688,2.239-4.612,5-4.612h113c2.761,0,5,1.924,5,4.612V197.32z"/>
		<g>
			<path fill="#57575E" d="M132.08,182.684c-2.426,0.394-4.384,2.344-4.797,4.767c-0.262,1.536,0.082,2.978,0.822,4.145
				c0.151,0.239,0.212,0.524,0.144,0.799l-0.491,1.979c-0.066,0.265,0.206,0.486,0.452,0.365l1.749-0.847
				c0.269-0.131,0.577-0.123,0.852-0.007c1.003,0.42,2.146,0.571,3.344,0.352c2.404-0.442,4.323-2.405,4.7-4.82
				C139.478,185.425,136.073,182.035,132.08,182.684 M130.616,189.412c-0.475,0-0.86-0.385-0.86-0.859c0-0.476,0.385-0.86,0.86-0.86
				c0.475,0,0.86,0.385,0.86,0.86C131.476,189.027,131.091,189.412,130.616,189.412 M133.062,189.412
				c-0.475,0-0.859-0.385-0.859-0.859c0-0.476,0.385-0.86,0.859-0.86c0.475,0,0.86,0.385,0.86,0.86
				C133.922,189.027,133.537,189.412,133.062,189.412 M135.507,189.412c-0.475,0-0.859-0.385-0.859-0.859
				c0-0.476,0.385-0.86,0.859-0.86c0.476,0,0.86,0.385,0.86,0.86C136.367,189.027,135.983,189.412,135.507,189.412"/>
		</g>
	</g>
	<g>
		<path fill="#FFFFFF" d="M194.562,165.938c0,2.071-2.278,4.25-4.646,4.25H75.85c-2.368,0-4.288-2.179-4.288-4.25v-90
			c0-2.071,1.92-3.75,4.288-3.75h114.066c2.368,0,4.646,1.679,4.646,3.75V165.938z"/>
		<g>
			<path fill="#57575E" d="M132.751,116.391l-5.22-2.113c-0.478-0.194-0.999,0.158-0.999,0.673v9.34c0,0.27,0.163,0.511,0.413,0.612
				l5.806,2.351c0.199,0.08,0.421,0.08,0.62,0l5.807-2.351c0.249-0.101,0.413-0.343,0.413-0.612v-9.34c0-0.515-0.523-0.867-1-0.673
				l-5.219,2.113C133.172,116.471,132.95,116.471,132.751,116.391 M132.009,125.884l-4-1.616c-0.25-0.101-0.413-0.344-0.413-0.612
				v-7.574c0-0.21,0.213-0.355,0.408-0.275l4.083,1.649c0.2,0.081,0.331,0.275,0.331,0.49v7.663
				C132.418,125.82,132.205,125.963,132.009,125.884 M138.114,124.268l-4.001,1.616c-0.195,0.079-0.408-0.064-0.408-0.276v-7.663
				c0-0.215,0.131-0.41,0.33-0.49l4.084-1.649c0.195-0.08,0.408,0.065,0.408,0.275v7.574
				C138.527,123.924,138.364,124.167,138.114,124.268"/>
			<path fill="#57575E" d="M131.076,120.213l-2.285-0.913c-0.138-0.056-0.229-0.189-0.229-0.338v-0.318
				c0-0.202,0.204-0.339,0.39-0.264l2.284,0.917c0.138,0.055,0.228,0.189,0.228,0.337v0.316
				C131.465,120.15,131.262,120.288,131.076,120.213"/>
			<path fill="#57575E" d="M131.076,123.248l-2.285-0.913c-0.138-0.056-0.229-0.189-0.229-0.338v-0.318
				c0-0.202,0.204-0.339,0.39-0.264l2.284,0.916c0.138,0.056,0.228,0.189,0.228,0.337v0.315
				C131.465,123.185,131.262,123.322,131.076,123.248"/>
			<path fill="#57575E" d="M135.047,120.236l2.284-0.913c0.138-0.056,0.229-0.189,0.229-0.338v-0.318
				c0-0.202-0.204-0.339-0.39-0.263l-2.284,0.916c-0.138,0.055-0.229,0.189-0.229,0.337v0.315
				C134.657,120.173,134.86,120.311,135.047,120.236"/>
			<path fill="#57575E" d="M135.047,123.271l2.284-0.913c0.138-0.056,0.229-0.189,0.229-0.338v-0.318
				c0-0.201-0.204-0.339-0.39-0.264l-2.284,0.917c-0.138,0.055-0.229,0.189-0.229,0.337v0.315
				C134.657,123.208,134.86,123.345,135.047,123.271"/>
		</g>
	</g>
	<g>
		<path fill="#FFFFFF" d="M247.562,127.188c0,2.761-2.104,5-4.473,5h-38.594c-2.369,0-3.934-2.239-3.934-5v-50
			c0-2.761,1.565-5,3.934-5h38.594c2.368,0,4.473,2.239,4.473,5V127.188z"/>
		<path fill="#57575E" d="M230.121,96.98h-12.119c-0.5,0-0.905,0.406-0.905,0.905v8.604c0,0.5,0.405,0.905,0.905,0.905h12.119
			c0.499,0,0.905-0.405,0.905-0.905v-8.604C231.026,97.386,230.62,96.98,230.121,96.98 M222.577,105.358h-1.389h-1.387
			c-0.315,0-0.783-0.135-0.783-0.665c0-0.893,1.408-0.64,1.408-1.558c0-0.567-0.906-1.09-0.906-2.406c0-1.111,0.743-1.75,1.668-1.75
			c0.927,0,1.669,0.638,1.669,1.75c0,1.316-0.905,1.838-0.905,2.406c0,0.917,1.407,0.665,1.407,1.558
			C223.359,105.224,222.892,105.358,222.577,105.358 M229.027,104.685c0,0.276-0.225,0.5-0.5,0.5h-3.198c-0.275,0-0.5-0.224-0.5-0.5
			v-0.131c0-0.276,0.225-0.5,0.5-0.5h3.198c0.275,0,0.5,0.224,0.5,0.5V104.685z M229.027,102.296c0,0.276-0.225,0.5-0.5,0.5h-3.198
			c-0.275,0-0.5-0.224-0.5-0.5v-0.131c0-0.276,0.225-0.5,0.5-0.5h3.198c0.275,0,0.5,0.224,0.5,0.5V102.296z M229.027,99.9
			c0,0.277-0.225,0.5-0.5,0.5h-3.198c-0.275,0-0.5-0.224-0.5-0.5v-0.129c0-0.276,0.225-0.5,0.5-0.5h3.198c0.275,0,0.5,0.224,0.5,0.5
			V99.9z"/>
	</g>
	<g>
		<path fill="#FFFFFF" d="M247.562,60.188c0,2.761-2.104,5-4.473,5H75.85c-2.368,0-4.288-2.239-4.288-5v-22c0-2.761,1.92-5,4.288-5
			h167.239c2.368,0,4.473,2.239,4.473,5V60.188z"/>
		<path fill="#57575E" d="M159.894,43.885h-3.745c-0.372,0-0.674,0.301-0.674,0.673v9.259c0,0.372,0.302,0.674,0.674,0.674h6.825
			c0.372,0,0.674-0.302,0.674-0.674v-6.214c0-0.145-0.057-0.284-0.16-0.386l-3.147-3.147
			C160.223,43.951,160.062,43.885,159.894,43.885 M162.519,53.578h-5.931c-0.12,0-0.216-0.097-0.216-0.216V45
			c0-0.12,0.096-0.216,0.216-0.216h3.046c0.298,0,0.541,0.242,0.54,0.541l-0.001,1.792c0,0.149,0.122,0.271,0.271,0.27l1.857-0.008
			c0.239-0.001,0.434,0.192,0.434,0.433v5.55C162.735,53.481,162.639,53.578,162.519,53.578"/>
	</g>
</g>
<g>
	<path fill="#FFFFFF" d="M329.188,105.545h-30.22c-2,0-3.619-1.619-3.619-3.616v-4.991c0-1.997,1.619-3.616,3.619-3.616h30.22
		c1.994,0,3.613,1.619,3.613,3.616v4.991C332.802,103.926,331.183,105.545,329.188,105.545"/>
	<path fill="#FFFFFF" d="M329.188,125.432h-30.22c-2,0-3.619-1.619-3.619-3.616v-4.99c0-1.997,1.619-3.616,3.619-3.616h30.22
		c1.994,0,3.613,1.619,3.613,3.616v4.99C332.802,123.812,331.183,125.432,329.188,125.432"/>
	<path fill="#FFFFFF" d="M329.188,145.316h-30.22c-2,0-3.619-1.619-3.619-3.615v-4.99c0-2,1.619-3.615,3.619-3.615h30.22
		c1.994,0,3.613,1.615,3.613,3.615v4.99C332.802,143.697,331.183,145.316,329.188,145.316"/>
	<path fill="#FFFFFF" d="M277.888,125.659V112.98c0-1.467-1.706-2.271-2.842-1.339l-7.721,6.365c-0.831,0.685-0.831,1.951,0,2.633
		l7.727,6.362C276.182,127.933,277.888,127.126,277.888,125.659"/>
</g>
</svg>
