<?xml version="1.0" encoding="utf-8"?>
<!DOCTYPE svg PUBLIC "-//W3C//DTD SVG 1.1//EN" "http://www.w3.org/Graphics/SVG/1.1/DTD/svg11.dtd">
<svg version="1.1" id="Layer_1" xmlns="http://www.w3.org/2000/svg" xmlns:xlink="http://www.w3.org/1999/xlink" x="0px" y="0px"
	 width="442.811px" height="155.432px" viewBox="-470.314 149.736 442.811 155.432"
	 enable-background="new -470.314 149.736 442.811 155.432" xml:space="preserve">
<rect x="-0.985" y="-1.97" fill="#E74C3C" width="501.971" height="501.97"/>
<rect x="510.666" y="-1.97" fill="#E74C3C" width="500" height="500"/>
<path fill="#FFFFFF" d="M921.904,300.006H778.622v-39.438h103.189c0-31.978-9.647-57.839-28.918-77.548
	c-10.517-10.082-22.792-18.079-36.81-23.997c-14.025-5.91-28.259-8.87-42.719-8.87c-15.775,0-30.234,2.96-43.379,8.87
	c-13.148,5.918-24.76,13.916-34.837,23.997c-10.083,10.083-18.075,21.689-23.988,34.831c-5.917,13.148-8.872,28.045-8.872,44.696
	c0,15.77,2.955,30.131,8.872,43.047c5.913,12.928,13.905,24.648,23.988,35.162c10.077,10.092,21.688,18.076,34.837,23.986
	c13.145,5.92,27.604,8.879,43.379,8.879v40.09c-21.033,0-40.754-3.939-59.152-11.83c-18.402-7.889-34.404-18.621-47.981-32.207
	c-13.587-13.58-24.32-29.57-32.205-47.98c-7.886-18.398-11.83-38.115-11.83-59.146c0-20.594,3.944-40.196,11.83-58.826
	c7.885-18.625,18.618-34.839,32.205-48.638c13.577-13.8,29.579-24.747,47.981-32.86c18.398-8.104,38.119-12.16,59.152-12.16
	c20.589,0,39.865,3.941,57.837,11.831c17.964,7.889,33.734,18.516,47.324,31.878c13.576,13.371,24.202,29.248,31.874,47.65
	c7.662,18.398,11.504,38.116,11.504,59.146V300.006z"/>
<g>
	<rect x="124.216" y="54.5" fill="#FFFFFF" width="93.292" height="391"/>
	<path fill="#FFFFFF" d="M237.631,261.798c-6.516,0-11.799-5.281-11.799-11.798c0-6.515,5.283-11.798,11.799-11.798
		c0.967,0,1.9,0.129,2.797,0.348l3.725-3.724c-2.001-0.861-4.204-1.343-6.522-1.343c-7.942,0-14.569,5.606-16.154,13.077h-18.455
		v5.407h18.219c0.973,8.194,7.934,14.551,16.39,14.551c2.318,0,4.521-0.481,6.522-1.342l-3.725-3.725
		C239.531,261.67,238.599,261.798,237.631,261.798z"/>
	<rect x="251.531" y="233.693" fill="#FFFFFF" width="36.264" height="32.614"/>
	<circle fill="#FFFFFF" cx="237.39" cy="250" r="8.551"/>
	<rect x="236.831" y="247.296" fill="#FFFFFF" width="18.218" height="5.409"/>
	<path fill="#FFFFFF" d="M248.195,54.5v42.254h40.284c22.73,0,41.158,18.427,41.158,41.158v44.177h46.146V54.5H248.195z"/>
	<path fill="#FFFFFF" d="M248.195,445.5v-42.254h40.283c22.73,0,41.158-18.427,41.158-41.158V317.91h46.146V445.5H248.195z"/>
	<path fill="#FFFFFF" d="M234.896,84.215c-4.975,0-9.009-4.033-9.009-9.008c0-4.976,4.034-9.009,9.009-9.009
		c0.738,0,1.45,0.098,2.136,0.266l2.844-2.844c-1.529-0.658-3.211-1.025-4.98-1.025c-6.064,0-11.125,4.281-12.334,9.985H208.47
		v4.129h13.911c0.743,6.256,6.058,11.11,12.515,11.11c1.769,0,3.452-0.368,4.98-1.025l-2.844-2.844
		C236.346,84.116,235.634,84.215,234.896,84.215z"/>
	<circle fill="#FFFFFF" cx="234.711" cy="75.207" r="6.528"/>
	<rect x="234.284" y="73.142" fill="#FFFFFF" width="13.911" height="4.129"/>
	<path fill="#FFFFFF" d="M237.262,433.286c-4.976,0-9.009-4.033-9.009-9.007c0-4.976,4.033-9.01,9.009-9.01
		c0.738,0,1.45,0.098,2.136,0.267l2.844-2.845c-1.529-0.657-3.211-1.024-4.98-1.024c-6.064,0-11.125,4.279-12.334,9.983h-14.092
		v4.13h13.911c0.744,6.256,6.059,11.109,12.515,11.109c1.769,0,3.452-0.367,4.98-1.024l-2.844-2.844
		C238.712,433.188,238,433.286,237.262,433.286z"/>
	<circle fill="#FFFFFF" cx="237.077" cy="424.279" r="6.529"/>
	<rect x="236.65" y="422.213" fill="#FFFFFF" width="13.911" height="4.13"/>
</g>
<g>
	<g>
		<path fill="#E74C3C" d="M-418.99,216.193v-10.233h-11.377v4.268h-1.904c-0.357-1.063-1.35-1.834-2.534-1.834
			c-1.481,0-2.683,1.201-2.683,2.682c0,1.482,1.201,2.683,2.683,2.683c1.184,0,2.177-0.771,2.534-1.834h1.904v4.269H-418.99z"/>
		<path fill="#E74C3C" d="M-431.415,149.736v5.849h-2.296c-0.272-0.812-1.031-1.4-1.935-1.4c-1.131,0-2.048,0.917-2.048,2.048
			c0,1.131,0.917,2.049,2.048,2.049c0.904,0,1.663-0.589,1.935-1.401h2.296v6.113h12.64c7.133,0,12.914,5.782,12.914,12.914v13.861
			h14.479v-40.032H-431.415z"/>
		<path fill="#E74C3C" d="M-405.862,246.245c0,7.131-5.781,12.912-12.914,12.912h-12.639v5.953h-1.554
			c-0.272-0.812-1.031-1.4-1.935-1.4c-1.131,0-2.048,0.916-2.048,2.049c0,1.131,0.917,2.047,2.048,2.047
			c0.904,0,1.663-0.589,1.935-1.4h1.554v6.01h40.032v-40.031h-14.479V246.245z"/>
		<path fill="#E74C3C" d="M-434.845,268.585c-1.561,0-2.826-1.268-2.826-2.826c0-1.562,1.265-2.828,2.826-2.828
			c0.232,0,0.455,0.031,0.671,0.084l0.892-0.893c-0.479-0.205-1.007-0.322-1.563-0.322c-1.902,0-3.49,1.344-3.869,3.133h-2.329
			v-53.239h1.172c0.305,2.57,2.489,4.565,5.142,4.565c0.728,0,1.418-0.151,2.047-0.422l-1.169-1.168
			c-0.281,0.068-0.574,0.109-0.877,0.109c-2.044,0-3.702-1.658-3.702-3.702c0-2.044,1.657-3.701,3.702-3.701
			c0.303,0,0.596,0.04,0.877,0.108l1.169-1.168c-0.628-0.271-1.319-0.421-2.047-0.421c-2.492,0-4.572,1.759-5.068,4.103h-1.246
			v-53.292h1.529c0.233,1.963,1.901,3.486,3.927,3.486c0.555,0,1.083-0.115,1.562-0.322l-0.892-0.892
			c-0.215,0.053-0.438,0.083-0.67,0.083c-1.561,0-2.827-1.267-2.827-2.827c0-1.561,1.266-2.826,2.827-2.826
			c0.232,0,0.456,0.03,0.67,0.083l0.892-0.892c-0.479-0.207-1.007-0.322-1.562-0.322c-1.902,0-3.49,1.343-3.87,3.132h-1.585v-5.672
			h-29.271v122.679h29.271v-6.188h2.271c0.233,1.965,1.9,3.486,3.926,3.486c0.556,0,1.084-0.115,1.563-0.32l-0.892-0.893
			C-434.39,268.554-434.613,268.585-434.845,268.585z"/>
	</g>
	<g>
		<path fill="#E74C3C" d="M-381.539,224.008v-41.407h11.128v41.861c0,2.347,1.06,3.104,1.968,3.104c0.455,0,0.757,0,1.363-0.151
			l1.363,8.251c-1.211,0.53-3.104,0.908-5.602,0.908C-378.965,236.574-381.539,231.578-381.539,224.008z"/>
		<path fill="#E74C3C" d="M-362.086,216.892c0-12.188,8.706-19.682,17.713-19.682c10.674,0,15.973,7.797,15.973,18.017
			c0,1.968-0.227,4.012-0.454,4.92h-22.482c0.984,5.45,4.769,7.948,9.765,7.948c2.801,0,5.375-0.833,8.1-2.498l3.709,6.737
			c-3.86,2.649-8.856,4.239-13.323,4.239C-353.835,236.574-362.086,229.307-362.086,216.892z M-337.863,212.805
			c0-4.164-1.817-7.116-6.283-7.116c-3.482,0-6.51,2.347-7.267,7.116H-337.863z"/>
		<path fill="#E74C3C" d="M-320.683,198.119h9.084l0.757,4.845h0.303c3.104-3.104,6.435-5.753,11.355-5.753
			c5.299,0,8.478,2.271,10.371,6.283c3.331-3.407,6.813-6.283,11.809-6.283c8.1,0,11.733,5.753,11.733,15.14v23.315h-11.128v-21.877
			c0-5.45-1.438-7.116-4.618-7.116c-1.892,0-4.012,1.211-6.434,3.634v25.359h-11.128v-21.877c0-5.45-1.438-7.116-4.618-7.116
			c-1.816,0-4.012,1.211-6.358,3.634v25.359h-11.128V198.119z"/>
		<path fill="#E74C3C" d="M-258.011,216.892c0-12.188,8.706-19.682,17.713-19.682c10.674,0,15.973,7.797,15.973,18.017
			c0,1.968-0.227,4.012-0.454,4.92h-22.482c0.984,5.45,4.769,7.948,9.765,7.948c2.801,0,5.375-0.833,8.1-2.498l3.709,6.737
			c-3.86,2.649-8.856,4.239-13.323,4.239C-249.759,236.574-258.011,229.307-258.011,216.892z M-233.787,212.805
			c0-4.164-1.817-7.116-6.283-7.116c-3.482,0-6.51,2.347-7.267,7.116H-233.787z"/>
		<path fill="#E74C3C" d="M-216.607,198.119h9.084l0.757,4.769h0.303c3.18-3.028,6.964-5.677,12.036-5.677
			c8.176,0,11.658,5.753,11.658,15.14v23.315h-11.128v-21.877c0-5.45-1.438-7.116-4.617-7.116c-2.801,0-4.542,1.287-6.964,3.634
			v25.359h-11.128V198.119z"/>
		<path fill="#E74C3C" d="M-171.798,222.04v-15.215h-5.147v-8.251l5.753-0.455l1.287-9.992h9.235v9.992h9.008v8.706h-9.008v15.064
			c0,4.239,1.893,5.98,4.845,5.98c1.211,0,2.574-0.378,3.558-0.757l1.741,8.1c-1.968,0.605-4.693,1.362-8.327,1.362
			C-168.165,236.574-171.798,230.745-171.798,222.04z"/>
		<path fill="#E74C3C" d="M-148.41,231.351l4.996-6.964c3.406,2.574,6.51,3.937,9.689,3.937c3.331,0,4.769-1.211,4.769-3.179
			c0-2.498-3.785-3.634-7.646-5.147c-4.542-1.741-9.917-4.845-9.917-11.052c0-6.964,5.678-11.733,14.383-11.733
			c5.753,0,9.993,2.347,13.248,4.769l-4.996,6.662c-2.725-1.968-5.299-3.179-7.948-3.179c-2.877,0-4.239,1.06-4.239,2.952
			c0,2.422,3.482,3.331,7.343,4.769c4.769,1.741,10.144,4.391,10.144,11.279c0,6.813-5.375,12.112-15.442,12.112
			C-138.947,236.574-144.625,234.455-148.41,231.351z"/>
	</g>
	<g>
		<path fill="#E74C3C" d="M-348.965,270.801h-4.996v-2.572l4.996-0.305v-8.099c0-7.191,3.255-10.901,9.008-10.901
			c1.665,0,3.633,0.454,5.299,1.211l-0.908,2.726c-1.514-0.758-3.028-1.061-4.391-1.061c-3.861,0-5.678,2.953-5.678,8.252v7.871
			h8.403v2.877h-8.403v33.459h-3.331V270.801z"/>
		<path fill="#E74C3C" d="M-329.589,267.924h2.876l0.303,6.738h0.227c2.422-4.467,5.98-7.646,10.295-7.646
			c1.362,0,2.422,0.151,3.633,0.757l-0.757,3.027c-1.211-0.453-1.893-0.605-3.331-0.605c-3.255,0-7.116,2.498-9.917,9.311v24.754
			h-3.331V267.924z"/>
		<path fill="#E74C3C" d="M-309.758,295.176c0-8.023,7.267-11.885,23.467-13.701c0.076-5.525-1.438-11.506-8.63-11.506
			c-4.845,0-9.084,2.422-11.582,4.238l-1.514-2.498c2.574-1.816,7.646-4.692,13.55-4.692c8.554,0,11.506,6.208,11.506,14.005v23.238
			h-2.876l-0.303-4.693h-0.228c-3.709,2.953-8.1,5.602-12.869,5.602C-304.989,305.168-309.758,302.064-309.758,295.176z
			 M-286.292,296.387v-12.338c-14.989,1.74-20.061,5.223-20.061,10.977c0,5.223,3.558,7.268,7.721,7.268
			C-294.467,302.293-290.833,300.248-286.292,296.387z"/>
		<path fill="#E74C3C" d="M-270.02,267.924h2.876l0.303,5.604h0.227c3.255-3.711,7.418-6.511,11.431-6.511
			c5.829,0,8.781,2.952,10.068,7.419c4.164-4.543,8.176-7.419,12.339-7.419c7.267,0,10.901,4.542,10.901,13.929v23.314h-3.407
			v-22.861c0-7.721-2.574-11.354-8.1-11.354c-3.406,0-6.889,2.27-10.901,6.812v27.402h-3.331v-22.861
			c0-7.721-2.574-11.354-8.175-11.354c-3.255,0-6.889,2.27-10.901,6.812v27.402h-3.331V267.924z"/>
		<path fill="#E74C3C" d="M-211.586,286.168c0-11.885,7.721-19.151,15.821-19.151c8.63,0,13.929,6.132,13.929,16.806
			c0,0.908,0,1.816-0.151,2.725h-26.192c0.151,9.16,5.526,15.746,13.702,15.746c3.936,0,7.04-1.287,9.765-3.256l1.362,2.574
			c-2.876,1.74-6.131,3.557-11.43,3.557C-204.092,305.168-211.586,298.053-211.586,286.168z M-185.016,283.822
			c0-9.312-4.164-13.93-10.674-13.93c-6.207,0-11.733,5.223-12.49,13.93H-185.016z"/>
		<path fill="#E74C3C" d="M-176.24,267.924h3.633l6.51,23.543c0.908,3.332,1.741,6.436,2.498,9.689h0.303
			c0.833-3.254,1.741-6.357,2.649-9.689l6.586-23.543h4.012l6.585,23.543c0.909,3.332,1.817,6.436,2.725,9.689h0.303
			c0.833-3.254,1.741-6.357,2.574-9.689l6.434-23.543h3.407l-10.447,36.336h-4.39l-6.359-22.559
			c-1.06-3.48-1.741-6.812-2.801-10.369h-0.303c-0.833,3.557-1.741,7.039-2.877,10.521l-6.283,22.406h-4.012L-176.24,267.924z"/>
		<path fill="#E74C3C" d="M-122.271,286.168c0-12.188,7.57-19.151,16.275-19.151c8.781,0,16.351,6.964,16.351,19.151
			c0,12.037-7.57,19-16.351,19C-114.701,305.168-122.271,298.205-122.271,286.168z M-93.127,286.168
			c0-9.613-5.526-16.199-12.869-16.199s-12.793,6.586-12.793,16.199c0,9.539,5.45,16.049,12.793,16.049
			S-93.127,295.707-93.127,286.168z"/>
		<path fill="#E74C3C" d="M-78.749,267.924h2.876l0.303,6.738h0.227c2.422-4.467,5.98-7.646,10.295-7.646
			c1.362,0,2.422,0.151,3.633,0.757l-0.757,3.027c-1.211-0.453-1.893-0.605-3.331-0.605c-3.255,0-7.116,2.498-9.917,9.311v24.754
			h-3.331V267.924z"/>
		<path fill="#E74C3C" d="M-54.755,249.833h3.331v40.12h0.151l17.941-22.029h3.86l-11.809,14.383l13.777,21.953h-3.709
			l-12.036-19.455l-8.176,9.539v9.916h-3.331V249.833z"/>
	</g>
</g>
</svg>
